<?xml version="1.0" encoding="utf-8"?>
<!-- Generator: Adobe Illustrator 19.0.0, SVG Export Plug-In . SVG Version: 6.00 Build 0)  -->
<svg version="1.1" id="Слой_1" xmlns="http://www.w3.org/2000/svg" xmlns:xlink="http://www.w3.org/1999/xlink" x="0px" y="0px"
	 viewBox="-275 367 60 60" style="enable-background:new -275 367 60 60;" xml:space="preserve">
<style type="text/css">
	.st0{fill:#FFDA32;}
</style>
<g>
	<path class="st0" d="M-245,367c16.6,0,30,13.4,30,30v0c0,16.6-13.4,30-30,30c-16.6,0-30-13.4-30-30C-275,380.4-261.6,367-245,367z"
		/>
	<path d="M-267.4,377.1c14.5-1.2,30.4-1.3,44.9,0c-5.5-6.2-13.5-10.1-22.4-10.1C-253.9,367-262,370.9-267.4,377.1z M-222.3,416.6
		c-14.1,1.1-30.8,1.2-45.5,0c5.5,6.4,13.7,10.4,22.8,10.4C-235.9,427-227.8,423-222.3,416.6L-222.3,416.6z M-274,389.4
		c19.5-0.3,38.5-0.4,58,0c1.2,4.7,1.3,9.6,0.2,14.3c-19.7,0.6-39.2,0.4-58.5,0c-0.5-2.2-0.7-4.4-0.7-6.7
		C-275,394.4-274.7,391.8-274,389.4z"/>
</g>
</svg>
